<svg xmlns="http://www.w3.org/2000/svg" width="96.55" height="96.55" viewBox="0 0 96.55 96.55"><path d="M72.496 48.53l-.227-.465c-.884.457-1.718.926-2.586 1.324-.844.389-1.711.737-2.589 1.043-.894.311-1.814.549-2.716.815l.016.18.124.356c1.26 3.179 1.816 6.492 1.857 9.896.034 2.838-.333 5.631-1.166 8.35-1.253 4.088-3.274 7.75-6.253 10.83-4.353 4.496-9.706 6.916-15.917 7.48-.574.053-1.152.046-1.777.068l.038-.182.968-.723c6.493-4.93 11.606-11.01 15.22-18.322 3.005-6.078 4.532-12.525 4.684-19.302.073-3.312-.217-6.597-.79-9.854-.65-3.705-1.671-7.313-2.985-10.837-.041-.109-.165-.374-.252-.531l-.122-.868-.01-.322c-.324-3.061-.879-6.077-1.72-9.038-1.143-4.021-2.764-7.83-5.035-11.348-1.565-2.424-3.37-4.647-5.57-6.531l-.686-.549-.011.271c.155.288.324.568.488.852 3.824 6.584 7.182 13.399 10.051 20.452.788 1.934 1.507 3.896 2.259 5.845l.222.408.121.867c.04 1.028.096 2.084.115 2.996.109 5.346-.032 10.682-.578 16.005-.251 2.458-.564 4.906-.98 7.337-.521 3.056-1.19 6.08-2.062 9.056-1.073 3.659-2.42 7.208-4.24 10.567-1.619 2.986-3.562 5.734-6.01 8.104-2.251 2.18-4.808 3.896-7.705 5.1-.309.129-.602.166-.946.099-3.955-.772-7.515-2.401-10.682-4.888-2.737-2.148-4.859-4.812-6.515-7.859-1.767-3.252-2.825-6.725-3.191-10.402-.215-2.164-.168-4.326.091-6.488.318-2.646.988-5.191 2.071-7.625 1.613-3.627 3.973-6.705 6.918-9.346 2.273-2.038 4.813-3.645 7.676-4.728 1.847-.698 3.752-1.139 5.713-1.371 1.735-.204 3.474-.213 5.208-.077 2.218.174 4.38.654 6.461 1.463.18.07.37.115.635.197.183-1.451.468-2.825.896-4.167.429-1.342 1.006-2.626 1.603-3.903-.326-.257-.681-.314-1.01-.42-2.82-.907-5.713-1.401-8.671-1.568-3.163-.18-6.294.033-9.398.65-3.718.739-7.189 2.11-10.404 4.122-3.06 1.916-5.703 4.307-8.038 7.05-5.18 6.085-7.943 13.133-8.369 21.1-.122 2.291-.045 4.582.245 6.865.408 3.221 1.223 6.326 2.512 9.305 2.083 4.814 5.122 8.949 8.973 12.49 2.85 2.621 6.096 4.621 9.713 6.002 3.37 1.289 6.875 1.959 10.467 2.136 3.333.163 6.646-.024 9.924-.714 4.427-.93 8.477-2.698 12.117-5.393 2.84-2.103 5.248-4.631 7.351-7.457 4.177-5.613 6.439-11.928 6.836-18.906.162-2.852.027-5.693-.441-8.515-.404-2.395-1.017-4.729-1.921-6.982zM88.79 10.815c-.731-2.712-1.759-5.303-3.167-7.737-.201-.346-.424-.68-.681-1.09l-.502.913c-.973 1.84-2.187 3.503-3.685 4.951-2.272 2.193-4.892 3.782-7.98 4.539-.269.066-.537.139-.803.217-2.277.667-4.479 1.516-6.54 2.711-1.412.82-2.624 1.859-3.624 3.155-1.86 2.409-2.759 5.127-2.625 8.167.11 2.483.82 4.804 2.02 6.977l.265.359c9.77-2.395 17.11-7.984 22.184-16.825-.019.298-.01.442-.04.578-.169.766-.438 1.497-.783 2.201-.762 1.551-1.787 2.919-2.931 4.203-1.984 2.23-4.24 4.164-6.609 5.969-2.869 2.186-5.876 4.166-8.995 5.975-.229.133-.502.219-.675.509.423.379.824.759 1.247 1.114 1.597 1.339 3.34 2.424 5.331 3.081 1.877.618 3.787.787 5.739.446 2.37-.412 4.433-1.46 6.243-3.023 1.756-1.514 3.138-3.336 4.303-5.327.675-1.152 1.303-2.333 1.737-3.601.905-2.636 1.434-5.353 1.604-8.129.216-3.496-.121-6.946-1.033-10.333z"/></svg>